<svg id="abad83d4-8a5f-4802-b21a-fd47c52b44e0" data-name="Layer 1" xmlns="http://www.w3.org/2000/svg" viewBox="0 0 72 84.24"><defs><style>.\38 3cada4e-a374-460c-8529-65d374a7b3c0{fill:#333;}.b4cac1c8-a840-410e-8df5-c9d01c3fd342{fill:#a559ff;}.\37 7889c69-c2f5-4b95-9abb-011adc4bf934{fill:#7b0dff;}.f7b99d15-58bc-439d-8279-7a7fdbd9ffc0{fill:#522d7f;}.\37 ed4f797-ae83-4516-ac60-0cf1798024eb{fill:#620acc;}.\38 7237f1e-98ab-4605-bba3-495f24853b91{fill:#562568;}.c8acc3d6-73fb-4b9c-b9eb-1ad1d80c02d8{fill:#8609b5;}.\32 25b11e5-e688-49dd-9f66-ca35b0fe696e{fill:#7f2d2d;}.\36 75635ae-31da-4cd6-810d-1f4540197b68{fill:#ac0ce8;}.\39 30b7f4f-debf-495d-8541-0479411fda44{fill:#cc0a0a;}.eb3c1b60-84ab-496d-a2e6-d6048bbe29a6{fill:#ec539f;}.\32 197ea2c-7db8-4414-988e-baad66e6fd5f{fill:#c253ec;}.\35 90566ab-3b81-460f-ac8c-b7f69de954e1{fill:#c0c;}.fce179a6-9efc-48cd-84f6-48397b4b3092{fill:#ff4cff;}.a2c8e395-9bf6-46fc-bbdc-458beeb6dbca{fill:#b5095f;}.\39 c18de65-a856-46d8-a242-154164359038{fill:#682547;}.\30 2dfeab8-fe37-4aee-98cc-6e3d0ea3e5db{fill:#e80c7a;}.\30 45297c0-61a4-4287-875b-61317dcacc2f{fill:#7f267f;}.ba7a8860-0dc1-4d0b-8114-dcb314559b08{fill:#f0f;}</style></defs><title>classpip-portrait</title><path class="83cada4e-a374-460c-8529-65d374a7b3c0" d="M17.89,70.31l-0.78.92a2.5,2.5,0,0,0-1.89-.75,2.12,2.12,0,0,0,0,4.22,2.46,2.46,0,0,0,2-.79L18,74.71a3.36,3.36,0,0,1-2.81,1.23,3.35,3.35,0,0,1,0-6.71A3.49,3.49,0,0,1,17.89,70.31Z"/><path class="83cada4e-a374-460c-8529-65d374a7b3c0" d="M19.52,75.89V66.67h1.43v9.22H19.52Z"/><path class="83cada4e-a374-460c-8529-65d374a7b3c0" d="M27.08,75.08a2.68,2.68,0,0,1-2.19.87,2.09,2.09,0,0,1-2.32-2c0-1.21.91-2,2.5-2h2v-0.2a1.32,1.32,0,0,0-1.58-1.33,3.49,3.49,0,0,0-1.95.67l-0.58-1a4.84,4.84,0,0,1,2.84-.83c1.7,0,2.66.87,2.67,2.32v4.33h-1.4V75.08Zm0-1.51V73H25.28c-0.93,0-1.37.25-1.37,0.88a1.08,1.08,0,0,0,1.28,1A1.7,1.7,0,0,0,27.07,73.56Z"/><path class="83cada4e-a374-460c-8529-65d374a7b3c0" d="M34.68,69.89l-0.52,1.06a3.88,3.88,0,0,0-1.9-.58c-0.56,0-1,.19-1,0.66,0,1.22,3.51.56,3.5,3,0,1.35-1.21,2-2.53,2A4.09,4.09,0,0,1,29.6,75l0.51-1a3.6,3.6,0,0,0,2.21.82c0.61,0,1.08-.21,1.08-0.71,0-1.35-3.48-.6-3.47-3,0-1.34,1.17-1.91,2.43-1.91A4.17,4.17,0,0,1,34.68,69.89Z"/><path class="83cada4e-a374-460c-8529-65d374a7b3c0" d="M40.51,69.89L40,70.94a3.88,3.88,0,0,0-1.9-.58c-0.56,0-1,.19-1,0.66,0,1.22,3.51.56,3.5,3,0,1.35-1.21,2-2.53,2A4.09,4.09,0,0,1,35.43,75l0.51-1a3.6,3.6,0,0,0,2.21.82c0.61,0,1.08-.21,1.08-0.71,0-1.35-3.48-.6-3.47-3,0-1.34,1.17-1.91,2.43-1.91A4.17,4.17,0,0,1,40.51,69.89Z"/><path class="83cada4e-a374-460c-8529-65d374a7b3c0" d="M48.67,72.68a3.06,3.06,0,0,1-3.12,3.2A3,3,0,0,1,42.69,74v4.3H42.44V69.46h0.25v1.89a3,3,0,0,1,2.87-1.89A3.07,3.07,0,0,1,48.67,72.68Zm-0.25,0a2.87,2.87,0,1,0-2.87,3A2.83,2.83,0,0,0,48.43,72.68Z"/><path class="83cada4e-a374-460c-8529-65d374a7b3c0" d="M51.13,67.61a0.32,0.32,0,1,1-.32-0.32A0.33,0.33,0,0,1,51.13,67.61Zm-0.45,8.27V69.46h0.25v6.42H50.68Z"/><path class="83cada4e-a374-460c-8529-65d374a7b3c0" d="M60,72.68a3.06,3.06,0,0,1-3.12,3.2A3,3,0,0,1,54,74v4.3H53.73V69.46H54v1.89a3,3,0,0,1,2.87-1.89A3.07,3.07,0,0,1,60,72.68Zm-0.25,0a2.87,2.87,0,1,0-2.87,3A2.83,2.83,0,0,0,59.71,72.68Z"/><polygon class="b4cac1c8-a840-410e-8df5-c9d01c3fd342" points="36 5.24 36 18.93 24.14 12.08 36 5.24"/><polygon class="77889c69-c2f5-4b95-9abb-011adc4bf934" points="47.85 12.08 36 18.93 36 5.24 47.85 12.08"/><polygon class="f7b99d15-58bc-439d-8279-7a7fdbd9ffc0" points="47.85 12.08 47.85 25.77 36 18.93 47.85 12.08"/><polygon class="7ed4f797-ae83-4516-ac60-0cf1798024eb" points="59.71 18.93 47.85 25.77 47.85 12.08 59.71 18.93"/><polygon class="87237f1e-98ab-4605-bba3-495f24853b91" points="24.14 12.08 24.14 25.77 12.29 18.93 24.14 12.08"/><polygon class="c8acc3d6-73fb-4b9c-b9eb-1ad1d80c02d8" points="36 18.93 24.14 25.77 24.14 12.08 36 18.93"/><polygon class="225b11e5-e688-49dd-9f66-ca35b0fe696e" points="59.71 18.93 59.71 32.62 47.85 25.77 59.71 18.93"/><polygon class="675635ae-31da-4cd6-810d-1f4540197b68" points="24.14 25.77 12.29 32.62 12.29 18.93 24.14 25.77"/><polygon class="930b7f4f-debf-495d-8541-0479411fda44" points="59.71 32.62 47.85 39.46 47.85 25.77 59.71 32.62"/><polygon class="eb3c1b60-84ab-496d-a2e6-d6048bbe29a6" points="59.71 32.62 59.71 46.3 47.85 39.46 59.71 32.62"/><polygon class="2197ea2c-7db8-4414-988e-baad66e6fd5f" points="24.14 25.77 24.14 39.46 12.29 32.62 24.14 25.77"/><polygon class="590566ab-3b81-460f-ac8c-b7f69de954e1" points="24.14 39.46 12.29 46.3 12.29 32.62 24.14 39.46"/><polygon class="fce179a6-9efc-48cd-84f6-48397b4b3092" points="36 46.3 36 59.99 24.14 53.15 36 46.3"/><polygon class="a2c8e395-9bf6-46fc-bbdc-458beeb6dbca" points="47.85 53.15 36 59.99 36 46.3 47.85 53.15"/><polygon class="9c18de65-a856-46d8-a242-154164359038" points="47.85 39.46 47.85 53.15 36 46.3 47.85 39.46"/><polygon class="02dfeab8-fe37-4aee-98cc-6e3d0ea3e5db" points="59.71 46.3 47.85 53.15 47.85 39.46 59.71 46.3"/><polygon class="045297c0-61a4-4287-875b-61317dcacc2f" points="24.14 39.46 24.14 53.15 12.29 46.3 24.14 39.46"/><polygon class="ba7a8860-0dc1-4d0b-8114-dcb314559b08" points="36 46.3 24.14 53.15 24.14 39.46 36 46.3"/></svg>