<svg id="694abcf7-b905-43a4-a66c-f05c4d96523a" data-name="Layer 1" xmlns="http://www.w3.org/2000/svg" viewBox="0 0 959.76 300.24"><defs><style>.\36 6221d12-6b14-42a5-8db8-b5f3e00f1011{fill:#a559ff;}.a07f333a-342b-4b46-83e2-57698dd67bf1{fill:#7b0dff;}.ec3de012-f7c2-4690-9e2b-64056ea7aea4{fill:#522d7f;}.\35 5ff69db-0ac2-4cac-b28b-34b123fa9af4{fill:#620acc;}.\35 f47bf75-7223-4147-a661-2e49f9c307a7{fill:#562568;}.\30 ac696ab-2569-4f67-899e-5cdd4d5d351d{fill:#8609b5;}.\34 942e4c3-ad07-4165-b644-57bc179a85da{fill:#7f2d2d;}.\38 7866fd5-8089-4046-a101-bbfff437ef60{fill:#ac0ce8;}.ee81abfb-1823-4a9f-9bec-a087e9aee72b{fill:#cc0a0a;}.cd0f532f-d2a7-4933-9a00-9c472bb352fc{fill:#ec539f;}.d11d5579-0c69-45c7-aa0e-4b932086393d{fill:#c253ec;}.d65695d2-9067-4509-bbc2-c95989f8a343{fill:#c0c;}.f7ed0222-a5ca-4eb6-96f2-bec55e632c41{fill:#ff4cff;}.\37 d62088e-967d-4050-9317-ce5131c7a571{fill:#b5095f;}.e163f9f4-2ebf-4285-b20b-e8b09c393a20{fill:#682547;}.b2d6f277-2cd8-4dee-aa94-217209d7e591{fill:#e80c7a;}.\30 0eeb02e-11c6-4a9c-95cb-5ee64c0e31db{fill:#7f267f;}.\36 dbed863-64dc-47d8-85e6-323d15ab0a82{fill:#f0f;}.f9fbf057-8a64-4c40-a7a3-caaca2ececaa{fill:#333;}</style></defs><title>classpip-portrait</title><polygon class="66221d12-6b14-42a5-8db8-b5f3e00f1011" points="134.04 22.87 134.04 86.5 78.94 54.68 134.04 22.87"/><polygon class="a07f333a-342b-4b46-83e2-57698dd67bf1" points="189.14 54.68 134.04 86.5 134.04 22.87 189.14 54.68"/><polygon class="ec3de012-f7c2-4690-9e2b-64056ea7aea4" points="189.15 54.68 189.15 118.31 134.05 86.5 189.15 54.68"/><polygon class="55ff69db-0ac2-4cac-b28b-34b123fa9af4" points="244.25 86.5 189.15 118.31 189.15 54.68 244.25 86.5"/><polygon class="5f47bf75-7223-4147-a661-2e49f9c307a7" points="78.95 54.68 78.95 118.31 23.85 86.5 78.95 54.68"/><polygon class="0ac696ab-2569-4f67-899e-5cdd4d5d351d" points="134.05 86.5 78.95 118.31 78.95 54.68 134.05 86.5"/><polygon class="4942e4c3-ad07-4165-b644-57bc179a85da" points="244.25 86.5 244.25 150.12 189.15 118.31 244.25 86.5"/><polygon class="87866fd5-8089-4046-a101-bbfff437ef60" points="78.95 118.31 23.85 150.12 23.85 86.5 78.95 118.31"/><polygon class="ee81abfb-1823-4a9f-9bec-a087e9aee72b" points="244.25 150.12 189.15 181.93 189.15 118.31 244.25 150.12"/><polygon class="cd0f532f-d2a7-4933-9a00-9c472bb352fc" points="244.25 150.12 244.25 213.75 189.15 181.93 244.25 150.12"/><polygon class="d11d5579-0c69-45c7-aa0e-4b932086393d" points="78.95 118.31 78.95 181.93 23.85 150.12 78.95 118.31"/><polygon class="d65695d2-9067-4509-bbc2-c95989f8a343" points="78.95 181.93 23.85 213.75 23.85 150.12 78.95 181.93"/><polygon class="f7ed0222-a5ca-4eb6-96f2-bec55e632c41" points="134.05 213.75 134.05 277.37 78.95 245.56 134.05 213.75"/><polygon class="7d62088e-967d-4050-9317-ce5131c7a571" points="189.15 245.56 134.05 277.37 134.05 213.75 189.15 245.56"/><polygon class="e163f9f4-2ebf-4285-b20b-e8b09c393a20" points="189.15 181.93 189.15 245.56 134.05 213.75 189.15 181.93"/><polygon class="b2d6f277-2cd8-4dee-aa94-217209d7e591" points="244.25 213.75 189.15 245.56 189.15 181.93 244.25 213.75"/><polygon class="00eeb02e-11c6-4a9c-95cb-5ee64c0e31db" points="78.95 181.93 78.95 245.56 23.85 213.75 78.95 181.93"/><polygon class="6dbed863-64dc-47d8-85e6-323d15ab0a82" points="134.05 213.75 78.95 245.56 78.95 181.93 134.05 213.75"/><path class="f9fbf057-8a64-4c40-a7a3-caaca2ececaa" d="M403.21,127l-9.76,11.46c-5.73-5.88-13.63-9.45-23.54-9.29-14.25,0-24.47,10.68-24.47,26.33s10.22,26.33,24.47,26.33c10.38,0,18.74-3.41,24.31-9.91l9.91,9.91c-7.43,9.76-19.36,15.33-35,15.33-24.47,0-41.5-16.88-41.5-41.66,0-24.93,17-42,41.5-42C384,113.5,395.62,118.3,403.21,127Z"/><path class="f9fbf057-8a64-4c40-a7a3-caaca2ececaa" d="M423.49,196.51V81.6H441.3V196.51H423.49Z"/><path class="f9fbf057-8a64-4c40-a7a3-caaca2ececaa" d="M517.8,186.44c-5.88,7.28-15.33,10.84-27.26,10.84-17.81,0-29-11-29-25.55,0-15,11.3-24.62,31.13-24.78h24.93v-2.48c0-10.38-6.66-16.57-19.67-16.57-7.9,0-16.11,2.79-24.31,8.36l-7.28-12.39c11.46-6.81,19.82-10.38,35.46-10.38,21.22,0,33.14,10.84,33.29,29l0.16,54H517.8V186.44Zm-0.16-18.89V160h-22.3c-11.62,0-17,3.1-17,11,0,7.43,6,12.23,16,12.23C507,183.19,516.72,176.53,517.65,167.55Z"/><path class="f9fbf057-8a64-4c40-a7a3-caaca2ececaa" d="M612.58,121.71l-6.5,13.16c-7.28-4.49-16.42-7.28-23.69-7.28-7,0-12.08,2.32-12.08,8.21,0,15.18,43.83,7,43.67,36.86,0,16.88-15,24.47-31.59,24.47-12.08,0-24.93-4-33.14-11.46l6.35-12.7c7.12,6.35,18.58,10.22,27.57,10.22,7.59,0,13.47-2.63,13.47-8.83,0-16.88-43.36-7.43-43.21-37.17,0-16.73,14.56-23.85,30.35-23.85C594.15,113.35,605.14,116.44,612.58,121.71Z"/><path class="f9fbf057-8a64-4c40-a7a3-caaca2ececaa" d="M685.36,121.71l-6.5,13.16c-7.28-4.49-16.42-7.28-23.69-7.28-7,0-12.08,2.32-12.08,8.21,0,15.18,43.83,7,43.67,36.86,0,16.88-15,24.47-31.59,24.47-12.08,0-24.93-4-33.14-11.46l6.35-12.7c7.12,6.35,18.58,10.22,27.57,10.22,7.59,0,13.47-2.63,13.47-8.83,0-16.88-43.36-7.43-43.21-37.17,0-16.73,14.56-23.85,30.35-23.85C666.93,113.35,677.93,116.44,685.36,121.71Z"/><path class="f9fbf057-8a64-4c40-a7a3-caaca2ececaa" d="M787.1,156.55c0,23.07-16.42,40-38.87,40-16.73,0-30-9.29-35.77-23.54v53.58h-3.1V116.44h3.1V140c5.73-14.25,19-23.54,35.77-23.54C770.68,116.44,787.1,133.32,787.1,156.55Zm-3.1,0c0-21.37-15-37-35.77-37s-35.77,15.64-35.77,37,15,36.86,35.77,36.86S784,177.92,784,156.55Z"/><path class="f9fbf057-8a64-4c40-a7a3-caaca2ececaa" d="M817.76,93.37a4,4,0,1,1-4-4A4.1,4.1,0,0,1,817.76,93.37Zm-5.57,103.14V116.44h3.1v80.06h-3.1Z"/><path class="f9fbf057-8a64-4c40-a7a3-caaca2ececaa" d="M927.86,156.55c0,23.07-16.42,40-38.87,40-16.73,0-30-9.29-35.77-23.54v53.58h-3.1V116.44h3.1V140c5.73-14.25,19-23.54,35.77-23.54C911.45,116.44,927.86,133.32,927.86,156.55Zm-3.1,0c0-21.37-15-37-35.77-37s-35.77,15.64-35.77,37,15,36.86,35.77,36.86S924.77,177.92,924.77,156.55Z"/></svg>